<?xml version="1.0" encoding="UTF-8"?>
<svg id="Layer_1" data-name="Layer 1" xmlns="http://www.w3.org/2000/svg" xmlns:xlink="http://www.w3.org/1999/xlink" viewBox="0 0 200 200">
  <defs>
    <clipPath id="clippath">
      <rect x="-275.5" y="29.17" width="254.84" height="141.71" transform="translate(-296.17 200.05) rotate(180)" style="fill: none;"/>
    </clipPath>
    <clipPath id="clippath-1">
      <rect x="-275.49" y="29.13" width="255.12" height="141.73" style="fill: none;"/>
    </clipPath>
  </defs>
  <g style="clip-path: url(#clippath);">
    <path d="M34.01-56.8c-9.91,7.59-18.7,16.67-26.31,27.15C-4.05-13.43-13.07,6.05-19.09,28.24c-5.9,21.78-8.89,45.97-8.89,71.89s3.04,50.26,9.06,71.6c6.11,21.7,15.18,40.84,26.94,56.88,11.92,16.26,26.82,29.51,44.24,39.4.39.22.77.44,1.16.65-14.29-4.34-27.74-10.68-40.13-18.91-16.89-11.22-31.63-24.85-43.8-40.5-12.2-15.71-21.89-33.23-28.81-52.08-6.83-18.67-10.3-37.86-10.3-57.05,0-23.78,4.64-46.42,13.8-67.31C-46.63,11.86-33.76-6.68-17.55-22.27c14.67-14.11,31.99-25.71,51.56-34.53Z" style="fill: #fff;"/>
  </g>
  <g style="clip-path: url(#clippath-1);">
    <g>
      <path d="M64.47-53.84c-9.63,7.36-18.18,16.17-25.57,26.34C27.47-11.76,18.71,7.14,12.85,28.67c-5.73,21.13-8.64,44.59-8.64,69.74s2.96,48.76,8.81,69.46c5.94,21.05,14.75,39.62,26.19,55.18,11.59,15.77,26.07,28.63,43.01,38.23.38.21.75.42,1.13.63-13.89-4.21-26.96-10.36-39.01-18.34-16.42-10.88-30.75-24.1-42.58-39.29-11.86-15.24-21.28-32.24-28-50.52-6.64-18.11-10.02-36.73-10.02-55.35,0-23.06,4.51-45.04,13.41-65.3C-13.92,12.77-1.4-5.21,14.35-20.33c14.27-13.69,31.09-24.94,50.12-33.5Z" style="fill: #a28448;"/>
      <path d="M32.68-53.84c-9.63,7.36-18.18,16.17-25.57,26.34C-4.32-11.76-13.08,7.14-18.94,28.67c-5.73,21.13-8.64,44.59-8.64,69.74s2.96,48.76,8.81,69.46c5.94,21.05,14.75,39.62,26.19,55.18,11.59,15.77,26.07,28.63,43.01,38.23.38.21.75.42,1.13.63-13.89-4.21-26.96-10.36-39.01-18.34-16.42-10.88-30.75-24.1-42.58-39.29-11.86-15.24-21.28-32.24-28-50.52-6.64-18.11-10.02-36.73-10.02-55.35,0-23.06,4.51-45.04,13.41-65.3C-45.71,12.77-33.2-5.21-17.44-20.33c14.27-13.69,31.09-24.94,50.12-33.5Z" style="fill: #fff;"/>
    </g>
  </g>
  <g>
    <path d="M66.74,15.14c-4.16,3.17-7.85,6.97-11.04,11.36-4.93,6.78-8.71,14.93-11.24,24.21-2.47,9.11-3.73,19.22-3.73,30.07s1.28,21.02,3.8,29.95c2.56,9.08,6.37,17.08,11.3,23.79,5,6.8,11.25,12.34,18.56,16.48.16.09.32.18.49.27-5.99-1.82-11.64-4.46-16.84-7.91-7.09-4.69-13.27-10.39-18.38-16.94-5.12-6.57-9.18-13.9-12.09-21.78-2.87-7.81-4.32-15.83-4.32-23.86,0-9.94,1.95-19.42,5.79-28.15,3.86-8.77,9.26-16.52,16.06-23.04,6.16-5.9,13.42-10.75,21.63-14.44Z" style="fill: #a28448;"/>
    <path d="M83.37,155.54c17.6,15.76,35.56,25.31,47.08,29.32-16.31-14.21-17.77-28.63-17.77-28.63-9.05,2.32-16.83,2.64-29.3-.69Z" style="fill: #a28448;"/>
    <path d="M133.26,15.14c4.16,3.17,7.85,6.97,11.04,11.36,4.93,6.78,8.71,14.93,11.24,24.21,2.47,9.11,3.73,19.22,3.73,30.07s-1.28,21.02-3.8,29.95c-2.56,9.08-6.37,17.08-11.3,23.79-5,6.8-11.25,12.34-18.56,16.48-.16.09-.32.18-.49.27,5.99-1.82,11.64-4.46,16.84-7.91,7.09-4.69,13.27-10.39,18.38-16.94,5.12-6.57,9.18-13.9,12.09-21.78,2.87-7.81,4.32-15.83,4.32-23.86,0-9.94-1.95-19.42-5.79-28.15-3.86-8.77-9.26-16.52-16.06-23.04-6.16-5.9-13.42-10.75-21.63-14.44Z" style="fill: #a28448;"/>
  </g>
</svg>